# xmcd CD database file
#
# Track frame offsets:
#	150
#	11062
#	21578
#	36112
#	38788
#	52232
#	57409
#	63475
#	71975
#	78930
#	84590
#	103596
#	108507
#	125347
#	138841
#	148006
#	156828
#	170001
#	178723
#	185009
#	199456
#	207095
#	216452
#	223703
#	230579
#
# Disc length: 3332 seconds
#
# Revision: 3
# Processed by: cddbd v1.5.2PL0 Copyright (c) Steve Scherf et al.
# Submitted via: CDex 1.51
#
DISCID=890d0219
DTITLE=Joseph Haydn - Scottish Songs for William Napier II  (Haydn Trio Eisenstadt) - Vol.6  [CD 1-2]
DYEAR=1900
DGENRE=Classique
TTITLE0=Bess and her spinning wheel
TTITLE1=As I cam down by yon eastle wa'
TTITLE2=The slave's lament
TTITLE3=Jenny drinks nae water
TTITLE4=The vain pursuit
TTITLE5=Dear Silvia
TTITLE6=The tither morn
TTITLE7=I do confess thou art sae fair
TTITLE8=The bonnue wee thing
TTITLE9=The widow
TTITLE10=The posie
TTITLE11=O for ane and twenty, Tam:
TTITLE12=Donocht Head
TTITLE13=Frae the friends and land I love
TTITLE14=Green sleeves
TTITLE15=Roy's wife
TTITLE16=Strephon and Lydia
TTITLE17=The shepherd's wife
TTITLE18=While hopeless
TTITLE19=A country lassie
TTITLE20=O'er the moor arnang the heather
TTITLE21=The wee wee man
TTITLE22=Strathallan's lament
TTITLE23=The bonny gray ey'd morn
TTITLE24=Hughie Graham
EXTD=
EXTT0=
EXTT1=
EXTT2=
EXTT3=
EXTT4=
EXTT5=
EXTT6=
EXTT7=
EXTT8=
EXTT9=
EXTT10=
EXTT11=
EXTT12=
EXTT13=
EXTT14=
EXTT15=
EXTT16=
EXTT17=
EXTT18=
EXTT19=
EXTT20=
EXTT21=
EXTT22=
EXTT23=
EXTT24=
PLAYORDER=
